<?xml version="1.0" encoding="UTF-8" standalone="no"?>
<svg
   id="a"
   viewBox="0 0 2560.3 641.8"
   version="1.1"
   sodipodi:docname="logo-eif.svg"
   width="2560.3"
   height="641.79999"
   inkscape:version="1.4.2 (f48b429827, 2025-09-25)"
   xmlns:inkscape="http://www.inkscape.org/namespaces/inkscape"
   xmlns:sodipodi="http://sodipodi.sourceforge.net/DTD/sodipodi-0.dtd"
   xmlns="http://www.w3.org/2000/svg"
   xmlns:svg="http://www.w3.org/2000/svg">
  <sodipodi:namedview
     id="namedview43"
     pagecolor="#ffffff"
     bordercolor="#666666"
     borderopacity="1.0"
     inkscape:pageshadow="2"
     inkscape:pageopacity="0.0"
     inkscape:pagecheckerboard="0"
     showgrid="false"
     width="2291.3px"
     inkscape:zoom="0.21725796"
     inkscape:cx="1555.7543"
     inkscape:cy="158.7974"
     inkscape:window-width="1920"
     inkscape:window-height="1043"
     inkscape:window-x="0"
     inkscape:window-y="0"
     inkscape:window-maximized="1"
     inkscape:current-layer="layer2"
     inkscape:showpageshadow="2"
     inkscape:deskcolor="#d1d1d1" />
  <defs
     id="defs4">
    <style
       id="style2">.b{fill:#fff;}.c{fill:#4c2e1b;}.d{font-family:GillSansMT, 'Gill Sans MT';font-size:96.9px;}.e{fill:#c9071d;}</style>
  </defs>
  <g
     inkscape:groupmode="layer"
     id="layer2"
     inkscape:label="back">
    <rect
       style="fill:#ffffff;stroke-width:1.99937;stroke-linecap:square"
       id="rect1"
       width="2560.3"
       height="641.79999"
       x="0"
       y="0"
       ry="3.7632363"
       rx="3.7632363" />
  </g>
  <g
     inkscape:groupmode="layer"
     id="layer1"
     inkscape:label="Layer 1">
    <g
       id="g26">
      <g
         id="g18">
        <path
           d="m 269,250 h -61.7 v 159.1 c 0,43.3 -17.3,76.4 -68.8,76.4 -51.5,0 -53.6,-17.9 -53.6,-67.2 V 250 H 23.1 v 174.3 c 0,73.1 31.4,109.9 104.5,109.9 73.1,0 64.4,-18.4 79.6,-46.6 h 1.1 v 39 h 60.6 V 250 v 0 z"
           id="path6" />
        <polygon
           class="e"
           points="233.1,203.9 59,203.9 59,173.2 233.1,173.2 "
           id="polygon8"
           style="fill:#c9071d" />
        <path
           class="e"
           d="m 124.9,42.2 c 0,-12.1 9.8,-21.9 21.9,-21.9 12.1,0 21.9,9.8 21.9,21.9 0,12.1 -9.8,21.9 -21.9,21.9 -12.1,0 -21.9,-9.8 -21.9,-21.9 z"
           id="path10"
           style="fill:#c9071d" />
        <path
           class="e"
           d="m 23.1,117 c 0,-19.8 16.1,-35.8 35.9,-35.8 19.8,0 35.8,16.1 35.8,35.8 0,19.7 -16.1,35.9 -35.8,35.9 -19.7,0 -35.9,-16.1 -35.9,-35.9 z"
           id="path12"
           style="fill:#c9071d" />
        <path
           class="e"
           d="m 110.2,117 c 0,-19.8 16.1,-35.8 35.9,-35.8 19.8,0 35.8,16.1 35.8,35.8 0,19.7 -16.1,35.9 -35.8,35.9 -19.7,0 -35.9,-16.1 -35.9,-35.9 z"
           id="path14"
           style="fill:#c9071d" />
        <path
           class="e"
           d="m 197.3,117 c 0,-19.8 16.1,-35.8 35.9,-35.8 19.8,0 35.8,16.1 35.8,35.8 0,19.7 -16,35.9 -35.8,35.9 -19.8,0 -35.9,-16.1 -35.9,-35.9 z"
           id="path16"
           style="fill:#c9071d" />
      </g>
      <path
         d="m 570.6,526.5 h -61.4 l -21.8,-49.1 c -8,-18 -15.2,-31.1 -21.6,-39.4 -6.4,-8.3 -12.6,-13.6 -18.7,-16 -6.1,-2.3 -13.9,-3.5 -23.5,-3.5 h -31 v 108 H 330.8 V 249.8 H 442 c 22.9,0.1 41.7,4.8 56.3,14.1 14.6,9.3 25.2,20.6 31.6,33.9 6.5,13.3 9.7,26 9.7,37.9 0,11.9 -2.7,25.8 -8.1,35.4 -5.4,9.7 -11.4,16 -17.1,21.1 -5.6,5 -10.3,8.5 -17.7,12.5 8.9,5.2 16.3,11.3 22.1,18.5 5.8,7.1 13.7,21.5 23.7,43.2 l 28,60.1 z M 478.9,337.2 c 0,-12.8 -4.2,-24.2 -12.6,-29.3 -8.4,-5.1 -22,-5.1 -40.9,-5.1 h -32.6 v 66.7 h 33 c 20.4,0 32.7,-0.7 40.3,-5.1 7.5,-4.5 12.8,-14.6 12.8,-27.2 z"
         id="path20" />
      <path
         d="m 669.8,519 c 0,18.1 -1.4,38.8 -4.3,51.4 -2.9,12.6 -9.4,25.1 -19.4,33.5 -10.1,8.4 -25,12.7 -45,12.7 -20,0 -23,-0.4 -31.2,-1.9 v -57.5 c 8.5,0.7 14,0.4 18.9,-0.3 4.9,-0.7 8.8,-2.2 11.9,-4.6 3,-2.4 5.2,-6.1 6.4,-11.1 1,-3.9 1.5,-15.1 1.5,-33.5 V 249.8 h 61.2 z"
         id="path22" />
      <path
         d="m 795.3,356.7 c 0,0 0,0 0,0 22.5,-54.5 97.9,-79.2 182.4,-17.2 V 277 c -37,-19.8 -72,-27 -101.9,-27 -29.9,0 -39.2,2.8 -57.3,8.5 -18.1,5.7 -34.2,14.4 -48.4,26.3 -14.2,11.9 -25.2,26.7 -33.1,44.6 -7.9,17.9 -11.8,38.8 -11.8,62.6 0,23.8 0,0 0,0.1 0,0.1 0,0 0,0.1 0,23.8 3.9,44.7 11.8,62.6 7.9,17.9 18.9,32.8 33.1,44.6 14.2,11.9 30.3,20.6 48.4,26.3 18.1,5.7 37.2,8.5 57.3,8.5 30,0 64.9,-7.2 101.9,-27 v -62.5 c -84.5,62 -159.9,37.3 -182.4,-17.2 0,0 0,0 0,0 -4.4,-10.7 -6.8,-22.5 -6.8,-35.1 v 0 c 0,0 0,-0.2 0,-0.3 0,-0.1 0,-0.2 0,-0.3 0.2,-11.5 2.4,-24.5 6.8,-35.1 z"
         id="path24" />
    </g>
    <g
       id="g40">
      <text
         class="d"
         transform="translate(1465.2,366.6)"
         id="text32"
         style="font-size:96.9px;font-family:GillSansMT, 'Gill Sans MT'"><tspan
           x="0"
           y="0"
           id="tspan28">Escuela de Ingeniería</tspan><tspan
           x="0"
           y="116.3"
           id="tspan30">de Fuenlabrada</tspan></text>
      <path
         class="c"
         d="M 1187.3,420.3 V 378 h 34 v -14.2 c 0,-38.2 8.1,-66.6 24.4,-85.3 13,-15 28.2,-24 45.3,-27 h -169.3 v 291.6 h 99.5 V 420.3 h -34 z"
         id="path34"
         style="fill:#4c2e1b" />
      <path
         class="c"
         d="m 1407.3,251.5 h -87.6 c 5.9,0.8 12.3,1.9 19.2,3.5 v 45.9 c -7.6,-2.7 -14.8,-4.1 -21.7,-4.1 -18.4,0 -31.2,4.9 -38.3,14.7 -7.1,9.8 -10.7,27.2 -10.7,52.3 V 378 h 42.3 v 42.3 h -42.3 v 122.8 h 139.1 z"
         id="path36"
         style="fill:#4c2e1b" />
      <path
         class="b"
         d="M 1310.5,420.3 V 378 h -42.3 v -14.2 c 0,-25.1 3.6,-42.5 10.7,-52.3 7.1,-9.8 19.9,-14.7 38.3,-14.7 18.4,0 14.1,1.4 21.7,4.1 V 255 c -6.9,-1.6 -13.3,-2.8 -19.2,-3.5 H 1291 c -17.2,3 -32.3,12 -45.3,27 -16.2,18.7 -24.4,47.2 -24.4,85.3 V 378 h -34 v 42.3 h 34 v 122.8 h 46.9 V 420.3 Z"
         id="path38"
         style="fill:#ffffff" />
    </g>
  </g>
</svg>
