<?xml version="1.0" encoding="UTF-8" standalone="no"?>
<svg
   height="217.06741"
   width="588.98328"
   version="1.1"
   y="0px"
   x="0px"
   viewBox="0 0 588.98327 217.06741"
   id="svg4"
   sodipodi:docname="Logo-cc-by-sa.svg"
   inkscape:version="1.4-beta3 (01c8a1c, 2024-08-28)"
   xmlns:inkscape="http://www.inkscape.org/namespaces/inkscape"
   xmlns:sodipodi="http://sodipodi.sourceforge.net/DTD/sodipodi-0.dtd"
   xmlns="http://www.w3.org/2000/svg"
   xmlns:svg="http://www.w3.org/2000/svg"
   xmlns:rdf="http://www.w3.org/1999/02/22-rdf-syntax-ns#"
   xmlns:cc="http://creativecommons.org/ns#"
   xmlns:dc="http://purl.org/dc/elements/1.1/">
  <defs
     id="defs4" />
  <sodipodi:namedview
     id="namedview4"
     pagecolor="#ffffff"
     bordercolor="#000000"
     borderopacity="0.25"
     inkscape:showpageshadow="2"
     inkscape:pageopacity="0.0"
     inkscape:pagecheckerboard="0"
     inkscape:deskcolor="#d1d1d1"
     inkscape:zoom="0.88338127"
     inkscape:cx="333.94414"
     inkscape:cy="209.9886"
     inkscape:window-width="1866"
     inkscape:window-height="1011"
     inkscape:window-x="0"
     inkscape:window-y="0"
     inkscape:window-maximized="1"
     inkscape:current-layer="layer7"
     showguides="true" />
  <title
     id="title1">Creative Commons “Attribution-Share Alike” license icon</title>
  <g
     inkscape:groupmode="layer"
     id="layer8"
     inkscape:label="back"
     transform="translate(128.17357,116.48891)">
    <rect
       style="fill:#ffffff;stroke:none;stroke-width:6.00001;stroke-linecap:round;stroke-linejoin:round"
       id="rect4"
       width="588.98328"
       height="217.06741"
       x="-128.17357"
       y="-116.48891" />
  </g>
  <g
     inkscape:groupmode="layer"
     id="layer7"
     inkscape:label="Layer 1"
     style="display:inline"
     transform="translate(128.17357,116.48891)">
    <path
       d="m -104.24255,-107.51897 542.09656,0.96516 c 7.57123,0 14.33383,-1.12818 14.33383,15.214206 L 451.52268,88.335407 H -117.92424 V -92.011304 c 0,-8.053816 0.77605,-15.507666 13.68169,-15.507666 z"
       fill="#aab2ab"
       id="path1"
       style="stroke-width:0.999999" />
    <path
       d="m 44.554089,-15.588118 c 0.01951,36.238892 -29.156755,65.636938 -65.167404,65.663024 -36.010634,0.01951 -65.219553,-29.345875 -65.245653,-65.584769 v -0.07824 c -0.01897,-36.245413 29.156748,-65.643475 65.173919,-65.663043 36.010649,-0.0271 65.219576,29.345896 65.245662,65.584788 -0.0065,0.01951 -0.0065,0.04567 -0.0065,0.07824 z M 182.46666,-88.255026 c 28.36115,0 51.35527,23.137594 51.35527,51.681348 0,28.5437507 -22.99412,51.687865 -51.35527,51.687865 -28.36768,0 -51.35529,-23.1375908 -51.35529,-51.687865 -0.007,-28.543754 22.98761,-51.681348 51.35529,-51.681348 z m 186.71802,50.54664 c 0.0195,28.1329119 -22.62894,50.957478 -50.58577,50.983564 -27.95032,0.01951 -50.63795,-22.7723973 -50.66403,-50.905309 v -0.07827 c -0.0136,-28.132912 22.63545,-50.957465 50.59229,-50.977033 27.95684,-0.01897 50.63793,22.772387 50.65751,50.905299 z"
       fill="#ffffff"
       id="path2"
       style="stroke-width:0.999999" />
    <path
       d="m 32.35925,-69.043258 c 14.45774,14.555553 21.68987,32.37176 21.68987,53.45514 0,21.08338 -7.101717,38.710468 -21.318155,52.887786 -15.083781,14.927268 -32.90650815,22.394163 -53.474706,22.394163 -20.320386,0 -37.836605,-7.401681 -52.542155,-22.205046 -14.712083,-14.809884 -22.061592,-32.4891429 -22.061592,-53.070382 0,-20.58124 7.349509,-38.403967 22.061592,-53.461661 14.333817,-14.555562 31.850054,-21.833333 52.542155,-21.833333 20.94643289,0 38.645257,7.277771 53.102991,21.833333 z m -95.908831,9.788479 c -12.227465,12.423085 -18.337918,26.985162 -18.337918,43.679702 0,16.7010643 6.051777,31.126192 18.148799,43.301468 12.097014,12.175277 26.502579,18.266176 43.216685,18.266176 16.7141049,0 31.243573,-6.14307 43.588403,-18.448774 11.718787,-11.425324 17.587961,-25.7917621 17.587961,-43.112349 0,-17.19016 -5.96047,-31.784841 -17.868373,-43.771002 -11.907906,-11.986158 -26.3460775,-17.979231 -43.307991,-17.979231 -16.961914,0 -31.308782,6.019159 -43.027566,18.06401 z m 32.169592,36.336714 c -1.871616,-4.095381 -4.662734,-6.143071 -8.392921,-6.143071 -6.59304,0 -9.886299,4.467095 -9.886299,13.39476 0,8.9341895 3.293259,13.4012841 9.886299,13.4012841 4.349712,0 7.466897,-2.1715958 9.331989,-6.534347 l 9.13635,4.8974985 C -25.660805,3.8844993 -32.195152,7.78424 -40.907615,7.78424 c -6.716945,0 -12.103535,-2.0672552 -16.146744,-6.2213253 -4.04974,-4.1475519 -6.071344,-9.860213 -6.071344,-17.1445117 0,-7.166914 2.086812,-12.846972 6.253932,-17.059734 4.167119,-4.212765 9.364593,-6.312624 15.585918,-6.312624 9.214607,0 15.807647,3.651929 19.792163,10.94927 z m 42.994967,0 c -1.8716157,-4.095381 -4.6105627,-6.143071 -8.2233674,-6.143071 -6.7234659,0 -10.0884592,4.467095 -10.0884592,13.39476 0,8.9341895 3.3649933,13.4012841 10.0884592,13.4012841 4.362754,0 7.4147254,-2.1715958 9.1559144,-6.534347 l 9.345028,4.8974985 C 17.542846,3.8844993 11.021538,7.78424 2.322116,7.78424 c -6.7104216,0 -12.0839777,-2.0672552 -16.127186,-6.2213253 -4.036688,-4.1475519 -6.051772,-9.860213 -6.051772,-17.1445117 0,-7.166914 2.04769,-12.846972 6.149591,-17.059734 4.0953781,-4.212765 9.3124246,-6.312624 15.651132,-6.312624 9.195042,0 15.781561,3.651929 19.753035,10.94927 z M 442.59501,-109.81447 h -552.3937 c -5.92136,0 -10.74058,4.85186 -10.74058,10.812327 V 89.900516 c 0,1.349902 1.08907,2.445496 2.42594,2.445496 h 569.02299 c 1.33687,0 2.42593,-1.095594 2.42593,-2.445496 V -99.002143 c 0,-5.960467 -4.81923,-10.812327 -10.74058,-10.812327 z m -552.3937,4.88446 h 552.38718 c 3.24761,0 5.88873,2.6607 5.88873,5.927867 V 32.134794 H 53.670882 c -14.470781,26.33303 -42.349361,44.207934 -74.34941,44.207934 -32.006556,0 -59.885166,-17.855336 -74.342894,-44.207934 H -115.68744 V -99.002143 c 0,-3.267167 2.64113,-5.927867 5.88875,-5.927867 z m 427.99328,11.418818 c -15.35769,0 -28.36117,5.393114 -38.99741,16.179367 -10.92318,11.164461 -16.38152,24.370105 -16.38152,39.62996 0,15.259855 5.45834,28.3741995 16.38152,39.3495553 10.91666,10.9753587 23.92015,16.4597757 38.99741,16.4597757 15.27289,0 28.50461,-5.536589 39.70823,-16.6032437 10.53843,-10.5058217 15.8272,-23.5810393 15.8272,-39.2060873 0,-15.625049 -5.37356,-28.837214 -16.11415,-39.62996 -10.72755,-10.786253 -23.86798,-16.179367 -39.42128,-16.179367 z m 0.14351,10.042814 c 12.58612,0 23.27453,4.467087 32.07177,13.394752 8.8755,8.83637 13.32303,19.62913 13.32303,32.371761 0,12.833929 -4.34319,23.489743 -13.04913,31.9543949 -9.16243,9.1102637 -19.94215,13.6686573 -32.34567,13.6686573 -12.39701,0 -23.09195,-4.506222 -32.06526,-13.5251866 -8.97332,-9.0254886 -13.45998,-19.7204286 -13.45998,-32.0913456 0,-12.370916 4.53231,-23.163676 13.60344,-32.37176 8.68638,-8.940718 19.33567,-13.401273 31.9218,-13.401273 z m -24.72232,37.882256 c 2.21724,-14.040372 12.03833,-21.546394 24.34403,-21.546394 17.71187,0 28.49158,12.925227 28.49158,30.167558 0,16.824967 -11.4775,29.8936639 -28.76548,29.8936639 -11.89485,0 -22.54414,-7.3690749 -24.4875,-21.8268089 h 13.97516 c 0.41084,7.506022 5.25618,10.147152 12.16876,10.147152 7.88425,0 13.00348,-7.369077 13.00348,-18.631369 0,-11.816607 -4.42796,-18.070539 -12.72307,-18.070539 -6.0909,0 -11.34054,2.223765 -12.44917,9.866737 l 4.06277,-0.01951 -11.00144,11.066658 -10.99493,-11.066658 z m -96.28708,-5.94091 c 0,-1.995521 -1.60424,-3.606281 -3.58671,-3.606281 h -22.6811 c -1.97596,0 -3.58672,1.61076 -3.58672,3.606281 v 22.824569 h 6.33219 v 27.0308108 h 17.19016 V -28.702463 h 6.33218 z M 182.40796,-73.75163 c 4.27797,0 7.75384,3.495409 7.75384,7.805991 0,4.310583 -3.47587,7.806002 -7.75384,7.806002 -4.2845,0 -7.75383,-3.495419 -7.75383,-7.806002 0,-4.310582 3.46933,-7.805991 7.75383,-7.805991 z m -0.0782,-19.759562 c -15.35768,0 -28.36117,5.393114 -39.00392,16.179367 -10.92319,11.15794 -16.38153,24.370105 -16.38153,39.623439 0,15.253331 5.45834,28.3741998 16.38153,39.3495555 10.91665,10.9753585 23.92013,16.4597755 39.00392,16.4597755 15.27289,0 28.50463,-5.536589 39.70171,-16.6097643 10.55798,-10.5058243 15.83372,-23.5745187 15.83372,-39.2060877 0,-15.631569 -5.36703,-28.830692 -16.10763,-39.62345 -10.72753,-10.786253 -23.8745,-16.172835 -39.4278,-16.172835 z m 0.14351,10.036283 c 12.58612,0 23.27453,4.467086 32.06525,13.394763 8.88855,8.836369 13.32955,19.629129 13.32955,32.365239 0,12.833927 -4.34319,23.48974 -13.04914,31.9543953 -9.16242,9.1167845 -19.94214,13.6686546 -32.34566,13.6686546 -12.39701,0 -23.09195,-4.5062219 -32.06526,-13.5317074 -8.97984,-9.0189645 -13.46649,-19.7139055 -13.46649,-32.0913425 0,-12.364396 4.53231,-23.157156 13.60344,-32.365239 8.69941,-8.927677 19.34219,-13.394763 31.92831,-13.394763 z"
       id="path3"
       style="stroke-width:0.999999" />
    <path
       d="m 331.23719,47.812011 11.8427,31.87614 h -7.23213 l -2.39333,-7.101701 h -11.84268 l -2.48462,7.101701 h -7.00389 l 11.97313,-31.87614 z m 0.40432,19.544362 -3.99103,-11.692709 h -0.0913 l -4.128,11.692709 z m -39.64302,4.447513 c 0.38478,0.74996 0.89343,1.349921 1.52599,1.806419 0.6391,0.463013 1.37601,0.808631 2.23029,1.030354 0.86734,0.221722 1.74771,0.332581 2.66069,0.332581 0.61953,0 1.28469,-0.05217 1.99553,-0.15001 0.71082,-0.09784 1.36947,-0.306496 1.99552,-0.606476 0.613,-0.299981 1.1347,-0.704307 1.53902,-1.22601 0.41736,-0.5217 0.62605,-1.18035 0.62605,-1.989 0,-0.860803 -0.27389,-1.552073 -0.82168,-2.093344 -0.54128,-0.541255 -1.26515,-0.978182 -2.14552,-1.343386 -0.88689,-0.35867 -1.89118,-0.665166 -3.00632,-0.932545 -1.12818,-0.273894 -2.26941,-0.573875 -3.41065,-0.899941 -1.18686,-0.29998 -2.33461,-0.665165 -3.46281,-1.089059 -1.11513,-0.43041 -2.11942,-0.991235 -3.00632,-1.682486 -0.89341,-0.678221 -1.60423,-1.532522 -2.15202,-2.562878 -0.54127,-1.03037 -0.81516,-2.275945 -0.81516,-3.730192 0,-1.643367 0.34561,-3.05849 1.0434,-4.264932 0.68474,-1.199918 1.60425,-2.204199 2.72591,-3.012841 1.12166,-0.802121 2.38679,-1.395561 3.80843,-1.786837 1.41513,-0.384759 2.84329,-0.573878 4.2519,-0.573878 1.65642,0 3.24109,0.182587 4.76055,0.560833 1.51295,0.371715 2.86937,0.971675 4.04972,1.806403 1.18689,0.828206 2.12595,1.897698 2.81722,3.195439 0.69777,1.291218 1.04341,2.862853 1.04341,4.714911 h -6.75609 c -0.0587,-0.952112 -0.26083,-1.747718 -0.59342,-2.36724 -0.34564,-0.626047 -0.78908,-1.121667 -1.34992,-1.480337 -0.56082,-0.358672 -1.19992,-0.613004 -1.92378,-0.749952 -0.71734,-0.149983 -1.4999,-0.228254 -2.35419,-0.228254 -0.56084,0 -1.12166,0.06521 -1.6825,0.176083 -0.56082,0.123911 -1.06298,0.332587 -1.51294,0.626043 -0.45649,0.306504 -0.84125,0.678218 -1.13471,1.121667 -0.29346,0.443448 -0.43693,1.010802 -0.43693,1.695538 0,0.626041 0.12383,1.134708 0.35215,1.512945 0.24129,0.397792 0.71082,0.749944 1.40208,1.07601 0.69127,0.326066 1.65641,0.658651 2.87591,0.984717 1.226,0.319548 2.83023,0.736907 4.79966,1.245574 0.59996,0.117353 1.41513,0.332584 2.45854,0.652135 1.04993,0.306496 2.08682,0.802113 3.12371,1.493367 1.03689,0.684752 1.9303,1.604245 2.68677,2.751994 0.74996,1.147749 1.12818,2.608531 1.12818,4.395361 0,1.467297 -0.28693,2.817201 -0.84777,4.062776 -0.56082,1.252095 -1.39555,2.328103 -2.50416,3.234562 -1.11515,0.919508 -2.48462,1.617297 -4.12147,2.125947 -1.64337,0.50867 -3.5476,0.756476 -5.69963,0.756476 -1.74771,0 -3.43673,-0.215219 -5.0801,-0.652133 -1.63684,-0.423891 -3.09109,-1.115145 -4.3497,-2.034637 -1.25209,-0.932561 -2.25638,-2.106396 -2.99329,-3.541074 -0.7369,-1.428162 -1.09557,-3.123716 -1.06297,-5.086614 h 6.75608 c -0.007,1.076007 0.18259,1.982466 0.56734,2.725892 z M 179.2647,47.812011 h 7.81253 l 7.42123,12.592642 7.36908,-12.592642 h 7.76035 l -11.75791,19.642171 v 12.233969 h -6.9778 V 67.278113 Z m -12.87958,0 c 1.50642,0 2.88241,0.136947 4.12798,0.404321 1.24558,0.267363 2.30855,0.704301 3.20196,1.310782 0.88691,0.613005 1.57164,1.428167 2.06074,2.432449 0.4891,1.010802 0.73039,2.269413 0.73039,3.749749 0,1.610763 -0.35868,2.941113 -1.08906,4.017123 -0.71735,1.069489 -1.79988,1.943344 -3.21501,2.621565 1.9564,0.573874 3.41065,1.558588 4.38231,2.973716 0.96517,1.421644 1.45427,3.123698 1.45427,5.112701 0,1.604245 -0.31955,2.999803 -0.93908,4.180156 -0.61951,1.173835 -1.46077,2.132463 -2.51722,2.875905 -1.04993,0.743426 -2.25638,1.297733 -3.59977,1.656403 -1.3499,0.358667 -2.73242,0.534752 -4.16058,0.534752 H 151.44481 V 47.80549 h 14.94031 z m -0.89343,12.886104 c 1.24558,0 2.2629,-0.29998 3.06502,-0.886907 0.80213,-0.599961 1.20645,-1.558589 1.20645,-2.89546 0,-0.743423 -0.137,-1.356425 -0.40432,-1.825959 -0.26739,-0.469534 -0.61953,-0.841248 -1.06949,-1.108622 -0.44998,-0.267363 -0.95212,-0.456492 -1.53251,-0.560833 -0.58041,-0.104343 -1.18037,-0.15001 -1.79988,-0.15001 h -6.52131 v 7.434296 h 7.05604 z m 0.40433,13.531702 c 0.68474,0 1.33687,-0.06518 1.9564,-0.195623 0.61951,-0.137029 1.17383,-0.35867 1.64336,-0.678218 0.47605,-0.306499 0.84777,-0.730393 1.1347,-1.265129 0.28695,-0.534756 0.4239,-1.219489 0.4239,-2.054208 0,-1.630331 -0.46302,-2.804166 -1.38253,-3.49542 -0.91949,-0.697786 -2.13898,-1.049941 -3.6454,-1.049941 h -7.60385 v 8.745068 h 7.47342 z"
       fill="#ffffff"
       id="path4"
       style="stroke-width:0.999999" />
  </g>
  <metadata
     id="metadata4">
    <rdf:RDF>
      <cc:Work
         rdf:about="">
        <dc:title>Creative Commons “Attribution-Share Alike” license icon</dc:title>
      </cc:Work>
    </rdf:RDF>
  </metadata>
</svg>
