<?xml version="1.0" encoding="UTF-8" standalone="no"?>
<!-- Created with Inkscape (http://www.inkscape.org/) -->

<svg
   width="303.48883mm"
   height="222.56764mm"
   viewBox="0 0 303.48883 222.56764"
   version="1.1"
   id="svg1"
   xml:space="preserve"
   inkscape:version="1.4.2 (a7c7f12d92, 2025-10-31)"
   sodipodi:docname="Portada.svg"
   xmlns:inkscape="http://www.inkscape.org/namespaces/inkscape"
   xmlns:sodipodi="http://sodipodi.sourceforge.net/DTD/sodipodi-0.dtd"
   xmlns:xlink="http://www.w3.org/1999/xlink"
   xmlns="http://www.w3.org/2000/svg"
   xmlns:svg="http://www.w3.org/2000/svg"><sodipodi:namedview
     id="namedview1"
     pagecolor="#ffffff"
     bordercolor="#000000"
     borderopacity="0.25"
     inkscape:showpageshadow="2"
     inkscape:pageopacity="0.0"
     inkscape:pagecheckerboard="0"
     inkscape:deskcolor="#d1d1d1"
     inkscape:document-units="mm"
     inkscape:zoom="0.69575618"
     inkscape:cx="546.88699"
     inkscape:cy="467.83631"
     inkscape:window-width="1866"
     inkscape:window-height="1011"
     inkscape:window-x="54"
     inkscape:window-y="32"
     inkscape:window-maximized="1"
     inkscape:current-layer="layer1"
     showgrid="false" /><defs
     id="defs1"><linearGradient
   id="linearGradient573"
   inkscape:collect="always"><stop
     style="stop-color:#063b8c;stop-opacity:1;"
     offset="0"
     id="stop573" /><stop
     style="stop-color:#063b8c;stop-opacity:0;"
     offset="1"
     id="stop574" /></linearGradient><linearGradient
   inkscape:collect="always"
   xlink:href="#linearGradient573"
   id="linearGradient568"
   x1="79.604233"
   y1="68.294083"
   x2="103.494"
   y2="146.38162"
   gradientUnits="userSpaceOnUse"
   gradientTransform="matrix(1.4588075,0,0,1.4588075,-103.25756,-55.498893)" /><linearGradient
   inkscape:collect="always"
   xlink:href="#linearGradient573"
   id="linearGradient570"
   x1="127.41187"
   y1="78.835747"
   x2="132.08887"
   y2="117.88503"
   gradientUnits="userSpaceOnUse"
   gradientTransform="matrix(1.4588075,0,0,1.4588075,-146.71377,-54.13277)" /><linearGradient
   inkscape:collect="always"
   xlink:href="#linearGradient573"
   id="linearGradient572"
   x1="68.577835"
   y1="86.836395"
   x2="72.409348"
   y2="109.86268"
   gradientUnits="userSpaceOnUse"
   gradientTransform="matrix(1.4588075,0,0,1.4588075,-37.734481,-55.271445)" /><linearGradient
   inkscape:collect="always"
   xlink:href="#linearGradient573"
   id="linearGradient574"
   x1="164.6862"
   y1="79.697296"
   x2="173.05681"
   y2="121.65196"
   gradientUnits="userSpaceOnUse"
   gradientTransform="matrix(1.4588075,0,0,1.4588075,-147.33195,-54.417439)" />
	
	
</defs><g
     inkscape:label="Capa 1"
     inkscape:groupmode="layer"
     id="layer1"
     transform="translate(51.658668,-27.688203)"><rect
       style="fill:#1a1a1a;fill-opacity:1;stroke:#1a1a1a;stroke-width:0.5334;stroke-linecap:round;stroke-linejoin:round;stroke-opacity:1"
       id="rect5"
       width="302.95544"
       height="222.03424"
       x="-51.391968"
       y="27.954903" /><text
       xml:space="preserve"
       style="font-size:22.7131px;font-family:Ubuntu;-inkscape-font-specification:Ubuntu;text-align:center;text-anchor:middle;fill:#0000ff;fill-opacity:1;stroke:none;stroke-width:0.5334;stroke-linecap:round;stroke-linejoin:round"
       x="95.794952"
       y="114.17782"
       id="text1"><tspan
         sodipodi:role="line"
         style="font-style:normal;font-variant:normal;font-weight:bold;font-stretch:normal;font-family:Ubuntu;-inkscape-font-specification:'Ubuntu Bold';fill:#0000ff;fill-opacity:1;stroke:none;stroke-width:0.5334"
         x="95.794952"
         y="114.17782"
         id="tspan2">Práctica 6</tspan><tspan
         sodipodi:role="line"
         style="font-style:normal;font-variant:normal;font-weight:bold;font-stretch:normal;font-family:Ubuntu;-inkscape-font-specification:'Ubuntu Bold';fill:#0000ff;fill-opacity:1;stroke:none;stroke-width:0.5334"
         x="95.794952"
         y="142.5692"
         id="tspan1">Sesiones adicionales</tspan><tspan
         sodipodi:role="line"
         style="font-style:normal;font-variant:normal;font-weight:bold;font-stretch:normal;font-family:Ubuntu;-inkscape-font-specification:'Ubuntu Bold';fill:#0000ff;fill-opacity:1;stroke:none;stroke-width:0.5334"
         x="95.794952"
         y="170.96057"
         id="tspan3">para saber más...</tspan></text><g
       id="g1"
       transform="matrix(0.6854914,0,0,0.6854914,10.703776,190.69781)"><g
         id="layer6"
         inkscape:label="back"
         transform="translate(-96.576019,-189.49313)"
         style="display:inline"><rect
           style="display:inline;fill:#ffffff;stroke:none;stroke-width:0.275691;stroke-linecap:round;stroke-dasharray:none"
           id="rect3"
           width="116.78363"
           height="57.174801"
           x="219.20007"
           y="189.49313" /><rect
           style="display:inline;fill:#ffffff;stroke:#000000;stroke-width:0.264583;stroke-linecap:round;stroke-dasharray:none"
           id="rect2"
           width="113.69832"
           height="54.089489"
           x="220.74272"
           y="190.84067" /><rect
           style="fill:#ffffff;stroke:none;stroke-width:0.275691;stroke-linecap:round;stroke-dasharray:none"
           id="rect3-3"
           width="116.78363"
           height="57.174801"
           x="96.576019"
           y="189.49316" /><rect
           style="fill:#ffffff;stroke:#000000;stroke-width:0.264583;stroke-linecap:round;stroke-dasharray:none"
           id="rect2-6"
           width="113.69832"
           height="54.089489"
           x="98.118668"
           y="190.84067" /></g><g
         id="layer5"
         inkscape:label="capa1"
         style="display:inline"
         transform="translate(-96.576019,-189.49313)"><g
           id="g574"
           transform="translate(130.35217,176.01445)"><path
             id="circle565"
             style="opacity:1;fill:url(#linearGradient568);stroke:#031a51;stroke-width:1.5875;stroke-linecap:round;stroke-linejoin:round;stroke-opacity:1"
             d="m 116.74838,54.759194 c -8.60875,-2e-6 -13.43632,-6.015648 -13.43632,-13.436323 0,-7.420676 5.58648,-13.436322 13.43632,-13.436324 7.84984,-2e-6 10.63606,0.0037 10.63606,0.0037 l 0.42621,7.178254 -0.1478,-0.0084 c 0,0 -1.54232,-0.779558 -4.44877,-1.059987 -2.90645,-0.280429 -5.05095,-0.135734 -5.05095,-0.135734 -4.10571,0.02439 -7.43404,3.35273 -7.43404,7.458438 0,4.105708 3.32833,7.434042 7.43404,7.434045 h 3.5788 v -4.72562 h -4.24298 v -5.553831 h 11.00417 v 14.902205 c 0,0 -3.14599,1.379526 -11.75474,1.379524 z"
             sodipodi:nodetypes="zszzcczcsccccccczz" /><path
             style="opacity:1;fill:url(#linearGradient570);stroke:#031a51;stroke-width:1.5875;stroke-linecap:round;stroke-linejoin:round;stroke-dasharray:none;stroke-opacity:1"
             d="m 128.82455,52.784821 2.09773,0.6342 1.75624,0.48784 1.51232,0.19514 1.60989,0.0488 h 1.75624 l 1.95138,-0.2927 1.75624,-0.53663 1.60989,-0.68299 1.2684,-0.97569 0.73176,-0.97569 0.34149,-1.21961 0.24393,-1.85381 -0.14636,-1.65867 -0.48784,-1.2684 -0.68298,-1.26839 -0.53663,-0.6342 -0.82934,-0.87812 -0.92691,-1.02448 -1.21961,-1.07326 -1.17083,-0.87812 -1.07325,-0.78055 -1.12205,-1.12204 -0.58541,-0.73177 -0.43906,-0.78055 0.0976,-0.73177 0.43906,-0.48785 0.43906,-0.43906 0.82933,-0.39027 0.82934,-0.0488 h 1.02448 l 0.68298,0.19514 0.68298,0.24392 0.73177,0.24392 1.07326,0.19514 0.87812,-0.14636 0.29271,-0.43906 v -1.5611 l -0.14636,-2.146516 -0.0976,-0.634201 -0.73177,-0.585412 -1.21961,-0.53663 -1.21961,-0.341493 -1.41475,-0.04878 -1.85381,-0.04878 -2.1953,0.292706 -1.2684,0.292709 -2.04895,0.682982 -1.65867,0.926907 -0.97569,1.463538 -0.58541,1.02447 -0.29271,1.12204 -0.0976,0.97569 0.0488,1.07326 0.3415,1.46354 0.58541,0.82933 0.73177,1.07326 0.53663,0.87812 0.97568,1.07326 0.68299,0.6342 0.78055,0.68298 1.41475,1.07326 1.07326,0.6342 0.97569,0.82934 0.48784,0.58541 0.43907,0.6342 0.34149,1.02447 -0.48785,1.02448 -1.12204,0.73177 -2.04895,0.14635 -1.41475,-0.39028 -1.41475,-0.63419 -1.46354,-0.68299 -0.87812,-0.34149 -0.58541,-0.0488 z"
             id="path568" /><path
             style="opacity:1;fill:url(#linearGradient572);stroke:#031a51;stroke-width:1.5875;stroke-linecap:round;stroke-linejoin:round;stroke-dasharray:none;stroke-opacity:1"
             d="m 144.30453,34.539421 h 7.31767 l 4.00033,11.61071 4.29304,-12.000987 6.34198,0.09757 -8.97635,24.392246 -0.87812,1.268397 -1.07325,0.87812 -0.9757,0.780554 -1.26839,0.682984 -7.02497,-0.19514 -0.78055,-0.195144 -0.39028,-0.975683 0.0976,-3.805193 0.48785,-0.390273 0.78055,-0.292709 0.78055,0.195138 0.48785,0.390277 0.78055,0.09757 0.68298,-0.09757 0.78055,-0.390277 0.87813,-0.682982 0.48784,-0.87812 0.29271,-0.585415 0.2927,-1.170829 z"
             id="path570" /><path
             id="circle573"
             style="opacity:1;fill:url(#linearGradient574);stroke:#031a51;stroke-width:1.5875;stroke-linecap:round;stroke-linejoin:round"
             d="m 186.54349,29.577066 0.6914,5.579815 -1.69337,0.565618 c -3.22716,-2.763896 -8.06717,-2.469941 -10.93554,0.664163 -2.86837,3.134102 -2.72979,7.977126 0.31311,10.942354 3.0429,2.96523 7.8918,2.982394 10.95565,0.03878 l 1.60407,0.229131 0.005,5.55278 -1.31718,0.780552 c -5.96209,3.305945 -13.43875,1.861427 -17.73768,-3.426981 -4.29893,-5.288407 -4.18108,-12.896469 0.2796,-18.049403 4.46068,-5.152931 11.9785,-6.365544 17.83533,-2.876809"
             sodipodi:nodetypes="cccssccccssc" /></g><g
           id="g575"
           style="display:inline"
           transform="translate(-157.54905,-91.545803)"><g
             id="flowRoot1422-1"
             style="font-style:normal;font-weight:normal;font-size:40px;line-height:1.25;font-family:sans-serif;letter-spacing:0px;word-spacing:0px;display:inline;fill:#000000;fill-opacity:1;stroke:none"
             transform="matrix(1.1855254,0,0,1.1335614,699.70118,175.7294)"
             aria-label="u"><path
               id="path1508-0"
               style="font-style:normal;font-variant:normal;font-weight:normal;font-stretch:normal;font-family:'Gill Sans MT';-inkscape-font-specification:'Gill Sans MT';letter-spacing:0.21192px;fill:#000000"
               d="m -354.53516,130.98047 v -2.28516 q -1.13281,1.23047 -2.59765,1.91406 -1.44531,0.6836 -2.89063,0.6836 -1.69922,0 -3.14453,-0.83985 -1.42578,-0.85937 -2.16797,-2.30468 -0.72265,-1.46485 -0.72265,-4.84375 v -10.29297 h 3.55468 v 10.25391 q 0,2.83203 0.80079,3.96484 0.82031,1.11328 2.85156,1.11328 2.53906,0 4.3164,-2.48047 v -12.85156 h 3.55469 v 17.96875 z"
               inkscape:connector-curvature="0" /></g><path
             id="rect1424-6"
             d="m 274.66704,286.93141 a 1.6251605,1.6251605 0 0 0 -1.62516,1.62516 1.6251605,1.6251605 0 0 0 1.62516,1.62516 1.6251605,1.6251605 0 0 0 1.62516,-1.62516 1.6251605,1.6251605 0 0 0 -1.62516,-1.62516 z m -6.42446,4.56153 a 2.622418,2.622418 0 0 0 -2.62242,2.62241 2.622418,2.622418 0 0 0 2.62242,2.62242 2.622418,2.622418 0 0 0 2.62242,-2.62242 2.622418,2.622418 0 0 0 -2.62242,-2.62241 z m 6.42446,0 a 2.622418,2.622418 0 0 0 -2.62242,2.62241 2.622418,2.622418 0 0 0 2.62242,2.62242 2.622418,2.622418 0 0 0 2.62242,-2.62242 2.622418,2.622418 0 0 0 -2.62242,-2.62241 z m 6.42504,0 a 2.622418,2.622418 0 0 0 -2.62242,2.62241 2.622418,2.622418 0 0 0 2.62242,2.62242 2.622418,2.622418 0 0 0 2.62242,-2.62242 2.622418,2.622418 0 0 0 -2.62242,-2.62241 z m -12.8495,6.69974 v 2.29808 h 12.8495 v -2.29808 z"
             style="display:inline;fill:#e10024;fill-opacity:1;stroke:none;stroke-width:0.905717;stroke-linecap:butt;stroke-linejoin:miter;stroke-miterlimit:4;stroke-dasharray:none;stroke-dashoffset:0;stroke-opacity:1;paint-order:markers stroke fill"
             inkscape:connector-curvature="0" /><path
             id="path1434-3"
             d="m 293.02352,304.04123 v 4.53395 c 0,0.64583 0.0397,1.11996 0.11922,1.42185 0.0831,0.3019 0.18616,0.55802 0.309,0.7682 0.12645,0.20635 0.27984,0.39354 0.46048,0.56168 0.59614,0.54264 1.38719,0.81389 2.37352,0.81389 0.96826,0 1.75244,-0.27321 2.35219,-0.81968 0.18064,-0.16432 0.33217,-0.34954 0.45501,-0.55589 0.12646,-0.21018 0.23137,-0.47219 0.31447,-0.78555 0.0867,-0.31336 0.13016,-0.77767 0.13016,-1.39293 v -4.54552 h -1.08941 v 4.54552 c 0,0.63054 -0.0466,1.0758 -0.14055,1.33566 -0.0939,0.25986 -0.24787,0.48573 -0.46104,0.6768 -0.40465,0.35539 -0.92812,0.53276 -1.57122,0.53276 -0.45162,0 -0.84398,-0.088 -1.17637,-0.26378 -0.33239,-0.17961 -0.57955,-0.4161 -0.74213,-0.71035 -0.16258,-0.29425 -0.24392,-0.81826 -0.24392,-1.57109 v -4.54552 z m 40.71459,0 v 2.84312 c -0.3902,-0.14904 -0.75156,-0.22328 -1.08395,-0.22328 -0.71537,0 -1.30401,0.25022 -1.76647,0.75083 -0.45884,0.50061 -0.68853,1.13894 -0.68853,1.9147 0,0.82926 0.2191,1.48999 0.65626,1.98295 0.44078,0.49297 1.02944,0.73985 1.76647,0.73985 h 2.10828 v -8.00817 z m 10.52277,0 v 2.84312 c -0.39019,-0.14904 -0.75101,-0.22328 -1.08339,-0.22328 -0.71537,0 -1.30456,0.25022 -1.76702,0.75083 -0.45885,0.50061 -0.68799,1.13894 -0.68799,1.9147 0,0.82926 0.21855,1.48999 0.65572,1.98295 0.44078,0.49297 1.02944,0.73985 1.76647,0.73985 h 2.10828 v -8.00817 z m -37.17016,0.51599 c -0.15174,0 -0.28581,0.063 -0.40142,0.18915 -0.11562,0.12229 -0.17337,0.26351 -0.17337,0.42401 0,0.16432 0.0578,0.30947 0.17337,0.43558 0.11561,0.12229 0.24968,0.18395 0.40142,0.18395 0.16257,0 0.30167,-0.0617 0.41727,-0.18395 0.11562,-0.12229 0.17337,-0.26744 0.17337,-0.43558 0,-0.17196 -0.0578,-0.31711 -0.17337,-0.43558 -0.1156,-0.11846 -0.2547,-0.17758 -0.41727,-0.17758 z m 21.34252,0 c -0.15175,0 -0.28527,0.063 -0.40087,0.18915 -0.11562,0.12229 -0.17338,0.26351 -0.17338,0.42401 0,0.16432 0.0578,0.30947 0.17338,0.43558 0.1156,0.12229 0.24912,0.18395 0.40087,0.18395 0.16258,0 0.30221,-0.0617 0.41781,-0.18395 0.11562,-0.12229 0.17338,-0.26744 0.17338,-0.43558 0,-0.17196 -0.0578,-0.31711 -0.17338,-0.43558 -0.1156,-0.11846 -0.25523,-0.17758 -0.41781,-0.17758 z m -24.9728,2.11542 c -0.56001,0 -1.06045,0.2575 -1.50123,0.77339 v -0.67043 h -1.00792 v 5.2738 h 1.00792 v -3.76634 c 0.32517,-0.49296 0.72069,-0.73927 1.18676,-0.73927 0.36491,0 0.62506,0.11628 0.78042,0.34939 0.15535,0.22929 0.23297,0.61347 0.23297,1.15229 v 3.00393 h 0.9866 v -3.0155 c 0,-0.642 -0.0707,-1.11024 -0.21164,-1.40449 -0.1373,-0.29808 -0.3397,-0.53122 -0.60706,-0.69936 -0.26735,-0.17196 -0.55611,-0.25741 -0.86682,-0.25741 z m 12.38057,0 c -0.68645,0 -1.24465,0.25219 -1.67458,0.75662 -0.42995,0.50061 -0.6448,1.1521 -0.6448,1.95461 0,0.535 0.10121,1.00659 0.30353,1.41548 0.20594,0.40508 0.47853,0.72817 0.81815,0.96892 0.33962,0.24075 0.78416,0.36096 1.33333,0.36096 0.40103,0 0.74994,-0.0454 1.04621,-0.1371 0.29987,-0.0917 0.60161,-0.24471 0.90511,-0.45871 v -1.0204 c -0.54917,0.428 -1.14896,0.64209 -1.79929,0.64209 -0.46606,0 -0.84729,-0.14908 -1.14355,-0.44715 -0.29265,-0.29808 -0.4516,-0.69934 -0.47689,-1.20377 h 3.50613 v -0.13189 c 0,-0.82161 -0.19683,-1.47703 -0.59064,-1.96618 -0.39381,-0.48915 -0.92154,-0.73348 -1.58271,-0.73348 z m 5.8359,0 c -0.47691,0 -0.95377,0.40657 -1.43067,1.22054 l -0.0542,0.092 v -1.20956 h -0.99151 v 5.2738 h 0.99151 v -2.75751 c 0,-0.43946 0.11551,-0.81971 0.34674,-1.14072 0.23484,-0.321 0.5117,-0.48127 0.82964,-0.48127 0.29264,0 0.61055,0.17205 0.95378,0.51598 l 0.52009,-0.91743 c -0.40464,-0.39743 -0.79329,-0.59581 -1.16542,-0.59581 z m 3.30543,0 c -0.46968,0 -0.85463,0.12806 -1.1545,0.38409 -0.29626,0.25604 -0.44463,0.5864 -0.44463,0.99148 0,0.31336 0.098,0.60365 0.29314,0.87116 0.19872,0.26368 0.61596,0.58284 1.25184,0.95734 0.31794,0.19108 0.52351,0.33819 0.61745,0.44137 0.0975,0.0994 0.14656,0.22545 0.14656,0.37831 0,0.14904 -0.0739,0.27709 -0.22204,0.38409 -0.14813,0.107 -0.32564,0.16024 -0.53158,0.16024 -0.19871,0 -0.44402,-0.063 -0.73666,-0.18916 -0.28904,-0.12993 -0.57277,-0.29805 -0.85096,-0.50441 v 1.12394 c 0.35045,0.1796 0.64106,0.30374 0.87229,0.37253 0.23123,0.065 0.4951,0.0972 0.79135,0.0972 0.5022,0 0.91258,-0.1373 1.23051,-0.41244 0.32155,-0.27897 0.48236,-0.63428 0.48236,-1.0661 0,-0.60379 -0.41595,-1.15413 -1.24692,-1.65092 l -0.3522,-0.21229 c -0.26735,-0.15668 -0.4549,-0.29063 -0.5633,-0.40145 -0.10477,-0.11082 -0.1575,-0.2271 -0.1575,-0.34939 0,-0.1414 0.0578,-0.25433 0.17337,-0.3384 0.11923,-0.0879 0.27501,-0.13189 0.46649,-0.13189 0.37214,0 0.85085,0.18718 1.43615,0.56169 v -1.0314 c -0.51304,-0.29042 -1.01348,-0.43557 -1.50122,-0.43557 z m 12.48886,0 c -0.71898,0 -1.26975,0.23845 -1.65272,0.71613 v 1.14072 c 0.50942,-0.58851 1.03345,-0.88273 1.57178,-0.88273 0.59974,0 0.89964,0.3172 0.89964,0.95156 v 0.28113 l -1.26278,0.45814 c -0.41549,0.15286 -0.73711,0.36163 -0.96472,0.62531 -0.224,0.25986 -0.33579,0.55605 -0.33579,0.88852 0,0.36685 0.1155,0.67228 0.34673,0.91685 0.23122,0.24075 0.51998,0.36096 0.86683,0.36096 0.47329,0 0.91969,-0.17205 1.33879,-0.51599 0.0759,0.35158 0.32489,0.52756 0.7476,0.52756 0.14813,0 0.28907,-0.0283 0.42275,-0.0856 0.1373,-0.0535 0.31797,-0.1572 0.54197,-0.31006 v -0.6363 c -0.2529,0.18725 -0.43861,0.28113 -0.55783,0.28113 -0.11561,0 -0.17337,-0.09 -0.17337,-0.26956 v -2.24095 c 0,-0.44329 -0.0129,-0.7434 -0.0383,-0.90008 -0.0217,-0.1605 -0.0757,-0.31939 -0.16242,-0.47607 -0.0867,-0.1605 -0.1842,-0.28798 -0.2926,-0.38352 -0.32516,-0.29807 -0.75726,-0.44714 -1.29558,-0.44714 z m -30.86832,0.10296 v 5.2738 h 0.98605 v -5.2738 z m 1.79819,0 2.25485,5.3652 h 0.33031 l 2.20016,-5.3652 h -1.06754 l -1.29504,3.24457 -1.34427,-3.24457 z m 19.54488,0 v 5.2738 h 0.98605 v -5.2738 z m 4.86024,0.79075 c 0.31433,0 0.62481,0.0827 0.93192,0.247 v 3.34176 h -0.76402 c -0.44078,0 -0.74624,-0.0308 -0.91605,-0.092 -0.16981,-0.0611 -0.33062,-0.17939 -0.48236,-0.35517 -0.2529,-0.29425 -0.379,-0.71261 -0.379,-1.25526 0,-0.57704 0.14466,-1.03604 0.43369,-1.37615 0.29265,-0.34011 0.68447,-0.5102 1.17582,-0.5102 z m 10.52278,0 c 0.31433,0 0.62481,0.0827 0.93191,0.247 v 3.34176 h -0.76401 c -0.44078,0 -0.74569,-0.0308 -0.9155,-0.092 -0.16981,-0.0611 -0.33062,-0.17939 -0.48236,-0.35517 -0.2529,-0.29425 -0.37954,-0.71261 -0.37954,-1.25526 0,-0.57704 0.14465,-1.03604 0.43368,-1.37615 0.29265,-0.34011 0.68446,-0.5102 1.17582,-0.5102 z m -27.48796,0.0116 c 0.35407,0 0.63595,0.11293 0.8455,0.3384 0.20954,0.22546 0.3269,0.54659 0.3522,0.96313 h -2.50915 c 0.0686,-0.41654 0.21515,-0.73767 0.43915,-0.96313 0.22761,-0.22547 0.51823,-0.3384 0.8723,-0.3384 z m 22.44889,1.86321 v 1.56473 c -0.26736,0.27133 -0.55852,0.40724 -0.87285,0.40724 -0.20954,0 -0.38095,-0.0689 -0.51463,-0.20651 -0.13006,-0.13757 -0.19524,-0.31552 -0.19524,-0.53334 0,-0.214 0.0689,-0.39137 0.20618,-0.53276 0.14091,-0.14521 0.37934,-0.2884 0.71534,-0.42979 z m 0.46595,6.9577 c -1.15252,0 -2.1224,0.39733 -2.91002,1.1922 -0.784,0.79486 -1.17637,1.77533 -1.17637,2.94088 0,0.73371 0.17195,1.41546 0.51518,2.046 0.34322,0.63054 0.80895,1.12569 1.39785,1.48491 0.58891,0.35921 1.30606,0.53854 2.15149,0.53854 1.04052,0 1.95822,-0.22921 2.75306,-0.68779 v -1.26104 c -0.87434,0.59615 -1.7703,0.8943 -2.68799,0.8943 -0.87794,0 -1.59879,-0.28244 -2.16242,-0.84802 -0.56362,-0.56557 -0.84495,-1.28797 -0.84495,-2.1669 0,-0.87129 0.28505,-1.59565 0.85589,-2.17269 0.57446,-0.58086 1.29532,-0.87116 2.16242,-0.87116 0.84542,0 1.71094,0.26732 2.5961,0.80232 v -1.23211 c -0.97187,-0.43947 -1.85539,-0.65944 -2.65024,-0.65944 z m -45.54256,0.10296 v 8.00817 h 1.08394 v -3.48521 h 0.28165 c 0.35407,0 0.60495,0.044 0.75308,0.13189 0.15174,0.0841 0.31997,0.22333 0.50423,0.41823 0.18787,0.19489 0.39399,0.4569 0.61799,0.78554 l 0.36259,0.62474 0.33634,0.58482 0.2111,0.31526 c 0.0325,0.0458 0.0542,0.0781 0.0651,0.0972 l 0.33087,0.52755 h 1.28958 l -0.40087,-0.57325 c -0.15897,-0.22928 -0.37066,-0.57143 -0.6344,-1.02618 -0.4191,-0.72226 -0.74389,-1.22861 -0.97511,-1.51904 -0.23123,-0.29043 -0.46781,-0.51964 -0.70987,-0.68778 0.41187,-0.16815 0.72792,-0.4223 0.94831,-0.76241 0.22039,-0.34011 0.33033,-0.74334 0.33033,-1.20955 0,-0.68404 -0.22544,-1.22653 -0.67706,-1.62778 -0.448,-0.40126 -1.05521,-0.60218 -1.82115,-0.60218 z m 19.98349,0 v 7.77332 c 0,0.65729 -0.0491,1.08684 -0.14657,1.28938 -0.094,0.20254 -0.22374,0.34434 -0.38994,0.42459 -0.16257,0.0803 -0.39915,0.12032 -0.70987,0.12032 h -0.27672 l 0.20071,1.0661 c 0.1662,0.0229 0.28356,0.0341 0.35219,0.0341 0.44802,0 0.8311,-0.10705 1.14904,-0.32105 0.31793,-0.21018 0.54708,-0.49262 0.68799,-0.84802 0.14451,-0.35157 0.21711,-0.89602 0.21711,-1.63357 v -7.9052 z m 37.94621,0 v 8.00817 h 0.98605 v -8.00817 z m -56.84576,0.9747 h 0.32486 c 0.5311,0 0.91047,0.042 1.13808,0.12611 0.23123,0.0841 0.41006,0.22922 0.53651,0.43558 0.12645,0.20253 0.18977,0.42978 0.18977,0.682 0,0.25603 -0.0577,0.48583 -0.17337,0.68836 -0.112,0.19872 -0.27095,0.34721 -0.47689,0.44657 -0.20232,0.0994 -0.57798,0.14924 -1.12715,0.14924 h -0.41181 z m 7.5805,1.6567 c -0.68646,0 -1.24465,0.2522 -1.67459,0.75663 -0.42994,0.50061 -0.64479,1.1521 -0.64479,1.95461 0,0.535 0.1012,1.00717 0.30353,1.41606 0.20593,0.40507 0.47853,0.72759 0.81815,0.96834 0.33962,0.24075 0.78416,0.36154 1.33333,0.36154 0.40103,0 0.74994,-0.046 1.0462,-0.13768 0.29988,-0.0917 0.60108,-0.24471 0.90457,-0.45871 v -1.0204 c -0.54917,0.428 -1.14841,0.64209 -1.79874,0.64209 -0.46606,0 -0.84729,-0.14908 -1.14355,-0.44715 -0.29265,-0.29808 -0.4516,-0.69934 -0.47689,-1.20377 h 3.50613 v -0.13189 c 0,-0.82161 -0.19683,-1.47704 -0.59064,-1.96618 -0.39381,-0.48914 -0.92155,-0.73349 -1.58271,-0.73349 z m 20.74148,0 c -0.71898,0 -1.26975,0.23904 -1.65271,0.71672 v 1.14071 c 0.50942,-0.5885 1.03344,-0.8833 1.57177,-0.8833 0.59975,0 0.89909,0.3172 0.89909,0.95156 v 0.28113 l -1.26223,0.45872 c -0.41548,0.15286 -0.73711,0.36105 -0.96472,0.62473 -0.224,0.25986 -0.33634,0.55605 -0.33634,0.88852 0,0.36686 0.11605,0.67228 0.34728,0.91685 0.23122,0.24075 0.51999,0.36154 0.86683,0.36154 0.47329,0 0.91969,-0.17206 1.33879,-0.51599 0.0758,0.35158 0.32489,0.52698 0.7476,0.52698 0.14814,0 0.28908,-0.0283 0.42275,-0.0856 0.1373,-0.0535 0.31797,-0.15662 0.54197,-0.30948 v -0.6363 c -0.2529,0.18725 -0.43914,0.28055 -0.55837,0.28055 -0.11562,0 -0.17337,-0.0894 -0.17337,-0.26898 v -2.24153 c 0,-0.44329 -0.0124,-0.7434 -0.0377,-0.90008 -0.0217,-0.1605 -0.0757,-0.31881 -0.16243,-0.47549 -0.0867,-0.1605 -0.18419,-0.28856 -0.29258,-0.3841 -0.32516,-0.29807 -0.75727,-0.44715 -1.29559,-0.44715 z m 5.94965,0 c -0.56,0 -1.06044,0.25809 -1.50122,0.77398 v -0.67101 h -1.00792 v 5.2738 h 1.00792 v -3.76634 c 0.32516,-0.49297 0.72069,-0.73927 1.18676,-0.73927 0.36491,0 0.62506,0.11686 0.78042,0.34997 0.15535,0.22929 0.23352,0.61289 0.23352,1.15171 v 3.00393 h 0.98605 v -3.01492 c 0,-0.642 -0.0701,-1.11025 -0.2111,-1.4045 -0.13729,-0.29807 -0.3397,-0.53121 -0.60705,-0.69935 -0.26736,-0.17197 -0.55667,-0.258 -0.86738,-0.258 z m 15.2299,0 c -0.71898,0 -1.26975,0.23904 -1.65271,0.71672 v 1.14071 c 0.50941,-0.5885 1.03344,-0.8833 1.57176,-0.8833 0.59975,0 0.89965,0.3172 0.89965,0.95156 v 0.28113 l -1.26278,0.45872 c -0.41549,0.15286 -0.73711,0.36105 -0.96472,0.62473 -0.224,0.25986 -0.33634,0.55605 -0.33634,0.88852 0,0.36686 0.11604,0.67228 0.34728,0.91685 0.23122,0.24075 0.51998,0.36154 0.86682,0.36154 0.47329,0 0.9197,-0.17206 1.3388,-0.51599 0.0758,0.35158 0.32489,0.52698 0.7476,0.52698 0.14813,0 0.28907,-0.0283 0.42275,-0.0856 0.13729,-0.0535 0.31797,-0.15662 0.54197,-0.30948 v -0.6363 c -0.2529,0.18725 -0.4386,0.28055 -0.55783,0.28055 -0.11561,0 -0.17392,-0.0894 -0.17392,-0.26898 v -2.24153 c 0,-0.44329 -0.0124,-0.7434 -0.0377,-0.90008 -0.0216,-0.1605 -0.0757,-0.31881 -0.16242,-0.47549 -0.0867,-0.1605 -0.1842,-0.28856 -0.2926,-0.3841 -0.32516,-0.29807 -0.75726,-0.44715 -1.29558,-0.44715 z m 5.70464,0 c -0.4769,0 -0.95377,0.40716 -1.43068,1.22113 l -0.0546,0.0914 v -1.20956 h -0.99153 v 5.2738 h 0.99153 v -2.75751 c 0,-0.43946 0.11604,-0.81914 0.34728,-1.14014 0.23483,-0.321 0.51114,-0.48185 0.82908,-0.48185 0.29265,0 0.61056,0.17205 0.95379,0.51598 l 0.52009,-0.91743 c -0.40465,-0.39743 -0.79275,-0.59582 -1.16488,-0.59582 z m 11.08608,0 c -0.46968,0 -0.85407,0.12807 -1.15395,0.3841 -0.29626,0.25604 -0.44461,0.5864 -0.44461,0.99148 0,0.31336 0.0975,0.60365 0.29258,0.87116 0.19871,0.26368 0.61596,0.58284 1.25184,0.95734 0.31794,0.19107 0.52405,0.33819 0.61799,0.44137 0.0976,0.0994 0.14602,0.22545 0.14602,0.37831 0,0.14904 -0.0739,0.27709 -0.22204,0.3841 -0.14813,0.10699 -0.3251,0.16081 -0.53103,0.16081 -0.19871,0 -0.44457,-0.063 -0.73721,-0.18916 -0.28904,-0.12993 -0.57223,-0.29805 -0.85042,-0.50441 v 1.12336 c 0.35045,0.1796 0.64106,0.30374 0.87229,0.37253 0.23123,0.065 0.4951,0.0972 0.79136,0.0972 0.50219,0 0.91202,-0.1373 1.22996,-0.41244 0.32155,-0.27897 0.48236,-0.63428 0.48236,-1.0661 0,-0.60379 -0.41539,-1.15413 -1.24637,-1.65092 l -0.3522,-0.21229 c -0.26736,-0.15668 -0.45546,-0.29005 -0.56384,-0.40087 -0.10479,-0.11082 -0.15696,-0.22768 -0.15696,-0.34997 0,-0.14139 0.0578,-0.25433 0.17336,-0.3384 0.11922,-0.0879 0.27447,-0.13131 0.46595,-0.13131 0.37213,0 0.85085,0.18718 1.43615,0.56168 v -1.03196 c -0.51304,-0.29044 -1.01349,-0.43559 -1.50123,-0.43559 z m -4.89688,0.0914 c -0.76594,0 -1.40362,0.25808 -1.91304,0.77398 -0.50581,0.51207 -0.75854,1.15433 -0.75854,1.92626 0,0.76429 0.25142,1.40263 0.75362,1.9147 0.5022,0.50825 1.12688,0.76183 1.87475,0.76183 0.77317,0 1.41455,-0.25023 1.92397,-0.75084 0.50943,-0.50443 0.76401,-1.13687 0.76401,-1.89734 0,-0.7834 -0.25087,-1.43293 -0.75307,-1.94883 -0.5022,-0.51971 -1.13299,-0.77976 -1.8917,-0.77976 z m -51.39323,0.0116 1.92944,4.14465 -1.69646,3.81725 h 1.10035 l 3.528,-7.9619 h -1.11074 l -1.28465,2.97501 -1.34371,-2.97501 z m 11.34585,0 v 3.02129 c 0,0.66111 0.067,1.13466 0.20071,1.42127 0.13729,0.28279 0.33784,0.50807 0.60158,0.67622 0.26736,0.16432 0.55798,0.24642 0.8723,0.24642 0.26736,0 0.53493,-0.0664 0.80229,-0.20015 0.27097,-0.13375 0.51125,-0.32093 0.72081,-0.56168 v 0.67043 h 0.98605 v -5.2738 h -0.98605 v 3.77213 c -0.32878,0.48532 -0.72802,0.7277 -1.1977,0.7277 -0.37575,0 -0.63961,-0.10901 -0.79135,-0.32683 -0.14813,-0.22165 -0.22205,-0.60917 -0.22205,-1.16328 v -3.00972 z m -13.76749,0.8029 c 0.35406,0 0.63594,0.11236 0.84549,0.33782 0.20955,0.22547 0.32691,0.5466 0.3522,0.96314 h -2.50914 c 0.0686,-0.41654 0.21515,-0.73767 0.43915,-0.96314 0.22762,-0.22546 0.51823,-0.33782 0.8723,-0.33782 z m 53.76072,0.12611 c 0.48774,0 0.89256,0.1642 1.21411,0.49284 0.32154,0.32865 0.48235,0.74308 0.48235,1.24369 0,0.50443 -0.15524,0.91886 -0.46595,1.24368 -0.3071,0.321 -0.70262,0.48186 -1.18675,0.48186 -0.48775,0 -0.88699,-0.15889 -1.1977,-0.47607 -0.31071,-0.32101 -0.4665,-0.73347 -0.4665,-1.2379 0,-0.50826 0.15207,-0.92661 0.45556,-1.25526 0.30348,-0.32864 0.69159,-0.49284 1.16488,-0.49284 z m -32.20109,1.73653 v 1.56472 c -0.26735,0.27133 -0.55797,0.40724 -0.8723,0.40724 -0.20954,0 -0.38094,-0.0689 -0.51462,-0.20651 -0.13007,-0.13757 -0.19525,-0.31494 -0.19525,-0.53276 0,-0.214 0.0689,-0.39194 0.20618,-0.53334 0.14091,-0.14521 0.37934,-0.2884 0.71535,-0.42979 z m 21.1801,0 v 1.56472 c -0.26736,0.27133 -0.55852,0.40724 -0.87285,0.40724 -0.20955,0 -0.38094,-0.0689 -0.51462,-0.20651 -0.13007,-0.13757 -0.19525,-0.31494 -0.19525,-0.53276 0,-0.214 0.0689,-0.39194 0.20618,-0.53334 0.1409,-0.14521 0.37934,-0.2884 0.71534,-0.42979 z"
             style="font-style:normal;font-variant:normal;font-weight:normal;font-stretch:normal;font-size:medium;line-height:1.25;font-family:'Gill Sans MT';-inkscape-font-specification:'Gill Sans MT';letter-spacing:0.21192px;word-spacing:0px;display:inline;fill:#000000;fill-opacity:1;stroke:none;stroke-width:0.285367"
             inkscape:connector-curvature="0" /><path
             id="rect1424-3-2"
             d="m 274.84437,286.83554 a 1.6289373,1.6289373 0 0 0 -1.62894,1.62893 1.6289373,1.6289373 0 0 0 1.62894,1.62894 1.6289373,1.6289373 0 0 0 1.62894,-1.62894 1.6289373,1.6289373 0 0 0 -1.62894,-1.62893 z m -6.43939,4.57213 a 2.6285125,2.6285125 0 0 0 -2.62852,2.62851 2.6285125,2.6285125 0 0 0 2.62852,2.62851 2.6285125,2.6285125 0 0 0 2.62851,-2.62851 2.6285125,2.6285125 0 0 0 -2.62851,-2.62851 z m 6.43939,0 a 2.6285125,2.6285125 0 0 0 -2.62851,2.62851 2.6285125,2.6285125 0 0 0 2.62851,2.62851 2.6285125,2.6285125 0 0 0 2.62851,-2.62851 2.6285125,2.6285125 0 0 0 -2.62851,-2.62851 z m 6.43997,0 a 2.6285125,2.6285125 0 0 0 -2.62851,2.62851 2.6285125,2.6285125 0 0 0 2.62851,2.62851 2.6285125,2.6285125 0 0 0 2.62851,-2.62851 2.6285125,2.6285125 0 0 0 -2.62851,-2.62851 z m -12.87936,6.71531 v 2.30342 h 12.87936 v -2.30342 z"
             style="display:inline;opacity:0.566356;fill:#e10024;fill-opacity:1;stroke:none;stroke-width:0.907822;stroke-linecap:butt;stroke-linejoin:miter;stroke-miterlimit:4;stroke-dasharray:none;stroke-dashoffset:0;stroke-opacity:1;paint-order:markers stroke fill"
             inkscape:connector-curvature="0" /></g></g></g><g
       id="g5"
       transform="matrix(0.26458333,0,0,0.26458333,-24.586366,45.229804)">
		<path
   class="st0"
   d="M 88,49.2 C 88,72.1 74.1,92.8 47.1,97.7 l 38.1,45 3.4,-4.8 68.6,-97 V 0 H 45.7 C 74.1,2.8 88,26.3 88,49.2 Z"
   id="path1"
   style="fill:#f5b21b" />
		<path
   class="st1"
   d="M 9.7,76.9 H 36 c 19.4,0 29.1,-13.8 29.1,-27.7 0,-13.9 -9.7,-27 -29.1,-27 H 0 V 157.3 H 67.2 L 9.7,88 Z m 97.7,73.4 50.6,-70.7 v 77.6 h -55.6 z"
   id="path2"
   style="fill:#283272" />
		<rect
   x="388.70001"
   y="26.299999"
   class="st1"
   width="22.9"
   height="107.4"
   id="rect2-7"
   style="fill:#283272" />
		<path
   class="st1"
   d="m 547.8,110.2 -119,-0.1 v 23.6 h 119.9 c 9,0 16.6,-3.5 22.9,-9.7 6.2,-6.2 9.7,-13.9 9.7,-22.9 0,-9 -3.5,-16.6 -9.7,-22.9 -6.2,-6.2 -13.9,-9.7 -22.9,-9.7 L 461.5,68 c -5.1,0 -9.3,-4.2 -9.3,-9.3 v 0 0 c 0,-5.2 4.2,-9.3 9.4,-9.3 l 119.7,-0.1 v -23 H 461.4 c -9,0 -16.6,3.5 -22.9,9.7 -6.2,6.2 -9.7,13.9 -9.7,22.9 0,9 3.5,16.6 9.7,22.9 6.2,6.2 13.8,9 22.9,9 h 87.1 c 5.2,0 9.4,4.2 9.3,9.4 v 0 0 c 0.1,5.5 -4.4,10 -10,10 z"
   id="path3"
   style="fill:#283272" />
		<path
   class="st1"
   d="m 645.7,26.3 h 99.1 v 22.9 h -99.1 c -8.3,0 -15.2,2.7 -21.5,9 -6.2,6.2 -9,13.2 -9,21.5 0,8.3 2.8,15.2 9,21.5 6.3,6.2 13.2,9 21.5,9 h 99.1 v 23.6 h -99 c -14.5,0 -27.1,-5.6 -37.5,-16 -10.4,-10.4 -15.2,-22.9 -15.2,-37.4 0,-14.5 4.8,-27 15.2,-37.4 10.4,-11.1 22.9,-16.7 37.4,-16.7 z"
   id="path4"
   style="fill:#283272" />
		<path
   class="st1"
   d="M 338.1,69.5 242.5,69.3 V 49.9 l 96.6,-0.2 c 5.2,0 9.4,4.2 9.5,9.4 v 0 0 c -0.1,5.7 -4.8,10.4 -10.5,10.4 z m 34,64.2 -30.5,-42.3 c 8.3,-0.7 15.2,-3.5 20.8,-9.7 6.2,-6.3 9.7,-13.9 9.7,-22.9 0,-9 -3.5,-16.6 -9.7,-22.9 -6.2,-6.3 -13.9,-9.7 -22.9,-9.7 H 219.6 v 107.4 h 22.9 V 91.3 h 70.7 l 30.5,42.3 h 28.4 z"
   id="path5"
   style="fill:#283272" />
		<polyline
   class="st0"
   points="859.1,133.7 796.3,26.3 823.2,26.3 872.3,111.5 921.3,26.3 947.8,26.3 885.4,133.7   "
   id="polyline5"
   style="fill:#f5b21b" />
		<rect
   x="758.70001"
   y="70"
   class="st0"
   width="45"
   height="20.799999"
   id="rect5-0"
   style="fill:#f5b21b" />
	</g></g></svg>
